<?xml version="1.0" standalone="no"?><!DOCTYPE svg PUBLIC "-//W3C//DTD SVG 1.1//EN" "http://www.w3.org/Graphics/SVG/1.1/DTD/svg11.dtd"><svg t="1567665207609" class="icon" viewBox="0 0 1024 1024" version="1.1" xmlns="http://www.w3.org/2000/svg" p-id="5515" xmlns:xlink="http://www.w3.org/1999/xlink" width="200" height="200"><defs><style type="text/css"></style></defs><path d="M511.482719 62.420655c-246.954485 0-448.728978 202.227818-448.728978 449.754331 0 247.52549 201.774493 449.753307 448.728978 449.753307 246.955508 0 448.699302-202.227818 448.699302-449.753307C960.182021 264.648472 759.520885 62.420655 511.482719 62.420655L511.482719 62.420655zM511.482719 917.728628c-222.710314 0-404.632667-181.233668-404.632667-405.553643 0-224.320998 181.922353-405.554666 404.632667-405.554666 222.680639 0 404.604014 182.331675 404.604014 405.554666S735.276714 917.728628 511.482719 917.728628L511.482719 917.728628zM511.482719 917.728628" p-id="5516"></path><path d="M702.12057 253.229398 562.802548 489.423819l109.803825 0 0 52.192709L544.676725 541.616528l0 71.928193 127.929648 0 0 52.852742L544.676725 666.397463l0 104.722086-65.793472 0L478.883253 666.397463l-132.640949 0 0-52.852742 132.640949 0 0-71.928193-132.640949 0 0-52.192709 113.139803 0L321.411779 253.229398l74.196863 0c64.476477 117.313869 103.624079 191.70209 117.504204 223.150336l1.346671 0c4.714372-12.941753 17.569144-39.030945 38.621623-78.298274l78.882582-144.852062L702.12057 253.229398 702.12057 253.229398z" p-id="5517"></path></svg>